<svg aria-hidden="true" style="position: absolute; width: 0; height: 0; overflow: hidden;" version="1.1" xmlns="http://www.w3.org/2000/svg" xmlns:xlink="http://www.w3.org/1999/xlink">
<defs>
<symbol id="icon-magnifying-glass" viewBox="0 0 32 32">
<title>magnifying-glass</title>
<path d="M20.133 0c-6.539 0-11.86 5.32-11.86 11.863 0 1.566 0.32 3.051 0.871 4.418l-9.144 9.145 6.57 6.574 9.148-9.152c1.367 0.555 2.852 0.875 4.414 0.875 6.543 0 11.867-5.32 11.867-11.858 0.001-6.545-5.323-11.865-11.866-11.865zM20.133 19.727c-4.332 0-7.863-3.531-7.863-7.862 0-4.336 3.531-7.867 7.863-7.867 4.34 0 7.871 3.531 7.871 7.867 0 4.33-3.531 7.862-7.871 7.862z"></path>
</symbol>
<symbol id="icon-plus" viewBox="0 0 22 28">
<title>plus</title>
<path d="M22 11.5v3c0 0.828-0.672 1.5-1.5 1.5h-6.5v6.5c0 0.828-0.672 1.5-1.5 1.5h-3c-0.828 0-1.5-0.672-1.5-1.5v-6.5h-6.5c-0.828 0-1.5-0.672-1.5-1.5v-3c0-0.828 0.672-1.5 1.5-1.5h6.5v-6.5c0-0.828 0.672-1.5 1.5-1.5h3c0.828 0 1.5 0.672 1.5 1.5v6.5h6.5c0.828 0 1.5 0.672 1.5 1.5z"></path>
</symbol>
<symbol id="icon-user" viewBox="0 0 20 28">
<title>user</title>
<path d="M20 21.859c0 2.281-1.5 4.141-3.328 4.141h-13.344c-1.828 0-3.328-1.859-3.328-4.141 0-4.109 1.016-8.859 5.109-8.859 1.266 1.234 2.984 2 4.891 2s3.625-0.766 4.891-2c4.094 0 5.109 4.75 5.109 8.859zM16 8c0 3.313-2.688 6-6 6s-6-2.688-6-6 2.688-6 6-6 6 2.688 6 6z"></path>
</symbol>
<symbol id="icon-home" viewBox="0 0 26 28">
<title>home</title>
<path d="M22 15.5v7.5c0 0.547-0.453 1-1 1h-6v-6h-4v6h-6c-0.547 0-1-0.453-1-1v-7.5c0-0.031 0.016-0.063 0.016-0.094l8.984-7.406 8.984 7.406c0.016 0.031 0.016 0.063 0.016 0.094zM25.484 14.422l-0.969 1.156c-0.078 0.094-0.203 0.156-0.328 0.172h-0.047c-0.125 0-0.234-0.031-0.328-0.109l-10.813-9.016-10.813 9.016c-0.109 0.078-0.234 0.125-0.375 0.109-0.125-0.016-0.25-0.078-0.328-0.172l-0.969-1.156c-0.172-0.203-0.141-0.531 0.063-0.703l11.234-9.359c0.656-0.547 1.719-0.547 2.375 0l3.813 3.187v-3.047c0-0.281 0.219-0.5 0.5-0.5h3c0.281 0 0.5 0.219 0.5 0.5v6.375l3.422 2.844c0.203 0.172 0.234 0.5 0.063 0.703z"></path>
</symbol>
<symbol id="icon-image" viewBox="0 0 30 28">
<title>image</title>
<path d="M10 9c0 1.656-1.344 3-3 3s-3-1.344-3-3 1.344-3 3-3 3 1.344 3 3zM26 15v7h-22v-3l5-5 2.5 2.5 8-8zM27.5 4h-25c-0.266 0-0.5 0.234-0.5 0.5v19c0 0.266 0.234 0.5 0.5 0.5h25c0.266 0 0.5-0.234 0.5-0.5v-19c0-0.266-0.234-0.5-0.5-0.5zM30 4.5v19c0 1.375-1.125 2.5-2.5 2.5h-25c-1.375 0-2.5-1.125-2.5-2.5v-19c0-1.375 1.125-2.5 2.5-2.5h25c1.375 0 2.5 1.125 2.5 2.5z"></path>
</symbol>
<symbol id="icon-map-marker" viewBox="0 0 16 28">
<title>map-marker</title>
<path d="M12 10c0-2.203-1.797-4-4-4s-4 1.797-4 4 1.797 4 4 4 4-1.797 4-4zM16 10c0 0.953-0.109 1.937-0.516 2.797l-5.688 12.094c-0.328 0.688-1.047 1.109-1.797 1.109s-1.469-0.422-1.781-1.109l-5.703-12.094c-0.406-0.859-0.516-1.844-0.516-2.797 0-4.422 3.578-8 8-8s8 3.578 8 8z"></path>
</symbol>
<symbol id="icon-chevron-right" viewBox="0 0 19 28">
<title>chevron-right</title>
<path d="M17.297 13.703l-11.594 11.594c-0.391 0.391-1.016 0.391-1.406 0l-2.594-2.594c-0.391-0.391-0.391-1.016 0-1.406l8.297-8.297-8.297-8.297c-0.391-0.391-0.391-1.016 0-1.406l2.594-2.594c0.391-0.391 1.016-0.391 1.406 0l11.594 11.594c0.391 0.391 0.391 1.016 0 1.406z"></path>
</symbol>
<symbol id="icon-exclamation-triangle" viewBox="0 0 28 28">
<title>exclamation-triangle</title>
<path d="M16 21.484v-2.969c0-0.281-0.219-0.516-0.5-0.516h-3c-0.281 0-0.5 0.234-0.5 0.516v2.969c0 0.281 0.219 0.516 0.5 0.516h3c0.281 0 0.5-0.234 0.5-0.516zM15.969 15.641l0.281-7.172c0-0.094-0.047-0.219-0.156-0.297-0.094-0.078-0.234-0.172-0.375-0.172h-3.437c-0.141 0-0.281 0.094-0.375 0.172-0.109 0.078-0.156 0.234-0.156 0.328l0.266 7.141c0 0.203 0.234 0.359 0.531 0.359h2.891c0.281 0 0.516-0.156 0.531-0.359zM15.75 1.047l12 22c0.344 0.609 0.328 1.359-0.031 1.969s-1.016 0.984-1.719 0.984h-24c-0.703 0-1.359-0.375-1.719-0.984s-0.375-1.359-0.031-1.969l12-22c0.344-0.641 1.016-1.047 1.75-1.047s1.406 0.406 1.75 1.047z"></path>
</symbol>
<symbol id="icon-shopping-cart" viewBox="0 0 26 28">
<title>shopping-cart</title>
<path d="M10 24c0 1.094-0.906 2-2 2s-2-0.906-2-2 0.906-2 2-2 2 0.906 2 2zM24 24c0 1.094-0.906 2-2 2s-2-0.906-2-2 0.906-2 2-2 2 0.906 2 2zM26 7v8c0 0.5-0.391 0.938-0.891 1l-16.312 1.906c0.078 0.359 0.203 0.719 0.203 1.094 0 0.359-0.219 0.688-0.375 1h14.375c0.547 0 1 0.453 1 1s-0.453 1-1 1h-16c-0.547 0-1-0.453-1-1 0-0.484 0.703-1.656 0.953-2.141l-2.766-12.859h-3.187c-0.547 0-1-0.453-1-1s0.453-1 1-1h4c1.047 0 1.078 1.25 1.234 2h18.766c0.547 0 1 0.453 1 1z"></path>
</symbol>
<symbol id="icon-bar-chart" viewBox="0 0 32 28">
<title>bar-chart</title>
<path d="M10 14v8h-4v-8h4zM16 6v16h-4v-16h4zM32 24v2h-32v-24h2v22h30zM22 10v12h-4v-12h4zM28 4v18h-4v-18h4z"></path>
</symbol>
<symbol id="icon-comments" viewBox="0 0 28 28">
<title>comments</title>
<path d="M22 12c0 4.422-4.922 8-11 8-0.953 0-1.875-0.094-2.75-0.25-1.297 0.922-2.766 1.594-4.344 2-0.422 0.109-0.875 0.187-1.344 0.25h-0.047c-0.234 0-0.453-0.187-0.5-0.453v0c-0.063-0.297 0.141-0.484 0.313-0.688 0.609-0.688 1.297-1.297 1.828-2.594-2.531-1.469-4.156-3.734-4.156-6.266 0-4.422 4.922-8 11-8s11 3.578 11 8zM28 16c0 2.547-1.625 4.797-4.156 6.266 0.531 1.297 1.219 1.906 1.828 2.594 0.172 0.203 0.375 0.391 0.313 0.688v0c-0.063 0.281-0.297 0.484-0.547 0.453-0.469-0.063-0.922-0.141-1.344-0.25-1.578-0.406-3.047-1.078-4.344-2-0.875 0.156-1.797 0.25-2.75 0.25-2.828 0-5.422-0.781-7.375-2.063 0.453 0.031 0.922 0.063 1.375 0.063 3.359 0 6.531-0.969 8.953-2.719 2.609-1.906 4.047-4.484 4.047-7.281 0-0.812-0.125-1.609-0.359-2.375 2.641 1.453 4.359 3.766 4.359 6.375z"></path>
</symbol>
<symbol id="icon-phone-square" viewBox="0 0 24 28">
<title>phone-square</title>
<path d="M20 18.641c0-0.078 0-0.172-0.031-0.25-0.094-0.281-2.375-1.437-2.812-1.687-0.297-0.172-0.656-0.516-1.016-0.516-0.688 0-1.703 2.047-2.312 2.047-0.313 0-0.703-0.281-0.984-0.438-2.063-1.156-3.484-2.578-4.641-4.641-0.156-0.281-0.438-0.672-0.438-0.984 0-0.609 2.047-1.625 2.047-2.312 0-0.359-0.344-0.719-0.516-1.016-0.25-0.438-1.406-2.719-1.687-2.812-0.078-0.031-0.172-0.031-0.25-0.031-0.406 0-1.203 0.187-1.578 0.344-1.031 0.469-1.781 2.438-1.781 3.516 0 1.047 0.422 2 0.781 2.969 1.25 3.422 4.969 7.141 8.391 8.391 0.969 0.359 1.922 0.781 2.969 0.781 1.078 0 3.047-0.75 3.516-1.781 0.156-0.375 0.344-1.172 0.344-1.578zM24 6.5v15c0 2.484-2.016 4.5-4.5 4.5h-15c-2.484 0-4.5-2.016-4.5-4.5v-15c0-2.484 2.016-4.5 4.5-4.5h15c2.484 0 4.5 2.016 4.5 4.5z"></path>
</symbol>
<symbol id="icon-twitter" viewBox="0 0 26 28">
<title>twitter</title>
<path d="M25.312 6.375c-0.688 1-1.547 1.891-2.531 2.609 0.016 0.219 0.016 0.438 0.016 0.656 0 6.672-5.078 14.359-14.359 14.359-2.859 0-5.516-0.828-7.75-2.266 0.406 0.047 0.797 0.063 1.219 0.063 2.359 0 4.531-0.797 6.266-2.156-2.219-0.047-4.078-1.5-4.719-3.5 0.313 0.047 0.625 0.078 0.953 0.078 0.453 0 0.906-0.063 1.328-0.172-2.312-0.469-4.047-2.5-4.047-4.953v-0.063c0.672 0.375 1.453 0.609 2.281 0.641-1.359-0.906-2.25-2.453-2.25-4.203 0-0.938 0.25-1.797 0.688-2.547 2.484 3.062 6.219 5.063 10.406 5.281-0.078-0.375-0.125-0.766-0.125-1.156 0-2.781 2.25-5.047 5.047-5.047 1.453 0 2.766 0.609 3.687 1.594 1.141-0.219 2.234-0.641 3.203-1.219-0.375 1.172-1.172 2.156-2.219 2.781 1.016-0.109 2-0.391 2.906-0.781z"></path>
</symbol>
<symbol id="icon-facebook" viewBox="0 0 16 28">
<title>facebook</title>
<path d="M14.984 0.187v4.125h-2.453c-1.922 0-2.281 0.922-2.281 2.25v2.953h4.578l-0.609 4.625h-3.969v11.859h-4.781v-11.859h-3.984v-4.625h3.984v-3.406c0-3.953 2.422-6.109 5.953-6.109 1.687 0 3.141 0.125 3.563 0.187z"></path>
</symbol>
<symbol id="icon-wrench" viewBox="0 0 26 28">
<title>wrench</title>
<path d="M6 23c0-0.547-0.453-1-1-1s-1 0.453-1 1 0.453 1 1 1 1-0.453 1-1zM16.063 16.438l-10.656 10.656c-0.359 0.359-0.875 0.578-1.406 0.578s-1.047-0.219-1.422-0.578l-1.656-1.687c-0.375-0.359-0.594-0.875-0.594-1.406s0.219-1.047 0.594-1.422l10.641-10.641c0.812 2.047 2.453 3.687 4.5 4.5zM25.969 9.641c0 0.516-0.187 1.156-0.359 1.656-0.984 2.781-3.656 4.703-6.609 4.703-3.859 0-7-3.141-7-7s3.141-7 7-7c1.141 0 2.625 0.344 3.578 0.984 0.156 0.109 0.25 0.25 0.25 0.438 0 0.172-0.109 0.344-0.25 0.438l-4.578 2.641v3.5l3.016 1.672c0.516-0.297 4.141-2.578 4.453-2.578s0.5 0.234 0.5 0.547z"></path>
</symbol>
<symbol id="icon-check-square" viewBox="0 0 24 28">
<title>check-square</title>
<path d="M10.703 20.297l9.594-9.594c0.391-0.391 0.391-1.016 0-1.406l-1.594-1.594c-0.391-0.391-1.016-0.391-1.406 0l-7.297 7.297-3.297-3.297c-0.391-0.391-1.016-0.391-1.406 0l-1.594 1.594c-0.391 0.391-0.391 1.016 0 1.406l5.594 5.594c0.391 0.391 1.016 0.391 1.406 0zM24 6.5v15c0 2.484-2.016 4.5-4.5 4.5h-15c-2.484 0-4.5-2.016-4.5-4.5v-15c0-2.484 2.016-4.5 4.5-4.5h15c2.484 0 4.5 2.016 4.5 4.5z"></path>
</symbol>
<symbol id="icon-thumbs-up" viewBox="0 0 25 28">
<title>thumbs-up</title>
<path d="M4 21c0-0.547-0.453-1-1-1-0.562 0-1 0.453-1 1 0 0.562 0.438 1 1 1 0.547 0 1-0.438 1-1zM6.5 13v10c0 0.547-0.453 1-1 1h-4.5c-0.547 0-1-0.453-1-1v-10c0-0.547 0.453-1 1-1h4.5c0.547 0 1 0.453 1 1zM25 13c0 0.828-0.328 1.719-0.859 2.328 0.172 0.5 0.234 0.969 0.234 1.188 0.031 0.781-0.203 1.516-0.672 2.141 0.172 0.578 0.172 1.203 0 1.828-0.156 0.578-0.453 1.094-0.844 1.469 0.094 1.172-0.172 2.125-0.766 2.828-0.672 0.797-1.703 1.203-3.078 1.219h-2.016c-2.234 0-4.344-0.734-6.031-1.313-0.984-0.344-1.922-0.672-2.469-0.688-0.531-0.016-1-0.453-1-1v-10.016c0-0.516 0.438-0.953 0.953-1 0.578-0.047 2.078-1.906 2.766-2.812 0.562-0.719 1.094-1.391 1.578-1.875 0.609-0.609 0.781-1.547 0.969-2.453 0.172-0.922 0.359-1.891 1.031-2.547 0.187-0.187 0.438-0.297 0.703-0.297 3.5 0 3.5 2.797 3.5 4 0 1.281-0.453 2.188-0.875 3-0.172 0.344-0.328 0.5-0.453 1h4.328c1.625 0 3 1.375 3 3z"></path>
</symbol>
<symbol id="icon-area-chart" viewBox="0 0 32 28">
<title>area-chart</title>
<path d="M32 24v2h-32v-24h2v22h30zM26 8l4 14h-26v-9l7-9 9 9z"></path>
</symbol>
<symbol id="icon-map-pin" viewBox="0 0 16 28">
<title>map-pin</title>
<path d="M8 17c0.688 0 1.359-0.078 2-0.234v10.234c0 0.547-0.453 1-1 1h-2c-0.547 0-1-0.453-1-1v-10.234c0.641 0.156 1.312 0.234 2 0.234zM8 0c4.422 0 8 3.578 8 8s-3.578 8-8 8-8-3.578-8-8 3.578-8 8-8zM8 3.5c0.281 0 0.5-0.219 0.5-0.5s-0.219-0.5-0.5-0.5c-3.031 0-5.5 2.469-5.5 5.5 0 0.281 0.219 0.5 0.5 0.5s0.5-0.219 0.5-0.5c0-2.484 2.016-4.5 4.5-4.5z"></path>
</symbol>
<symbol id="icon-credit-card-alt" viewBox="0 0 36 28">
<title>credit-card-alt</title>
<path d="M0 23.5v-9.5h36v9.5c0 1.375-1.125 2.5-2.5 2.5h-31c-1.375 0-2.5-1.125-2.5-2.5zM10 20v2h6v-2h-6zM4 20v2h4v-2h-4zM33.5 2c1.375 0 2.5 1.125 2.5 2.5v3.5h-36v-3.5c0-1.375 1.125-2.5 2.5-2.5h31z"></path>
</symbol>
<symbol id="icon-snapchat-ghost" viewBox="0 0 26 28">
<title>snapchat-ghost</title>
<path d="M13.25 2c2.812-0.031 5.141 1.547 6.312 4.078 0.359 0.766 0.422 1.953 0.422 2.797 0 1-0.078 1.984-0.141 2.984 0.125 0.063 0.297 0.109 0.438 0.109 0.562 0 1.031-0.422 1.594-0.422 0.531 0 1.297 0.375 1.297 1 0 1.5-3.141 1.219-3.141 2.531 0 0.234 0.094 0.453 0.187 0.672 0.75 1.641 2.172 3.219 3.859 3.922 0.406 0.172 0.812 0.266 1.25 0.359 0.281 0.063 0.438 0.266 0.438 0.547 0 1.062-2.703 1.5-3.422 1.609-0.313 0.484-0.078 1.625-0.906 1.625-0.641 0-1.281-0.203-1.969-0.203-0.328 0-0.656 0.016-0.969 0.078-1.859 0.313-2.484 2.312-5.531 2.312-2.938 0-3.641-2-5.453-2.312-0.328-0.063-0.656-0.078-0.984-0.078-0.703 0-1.375 0.234-1.937 0.234-0.875 0-0.609-1.156-0.938-1.656-0.719-0.109-3.422-0.547-3.422-1.609 0-0.281 0.156-0.484 0.438-0.547 0.438-0.094 0.844-0.187 1.25-0.359 1.672-0.688 3.125-2.281 3.859-3.922 0.094-0.219 0.187-0.438 0.187-0.672 0-1.313-3.156-1.062-3.156-2.516 0-0.609 0.719-1 1.266-1 0.484 0 0.969 0.406 1.578 0.406 0.172 0 0.344-0.031 0.5-0.109-0.063-0.984-0.141-1.969-0.141-2.969 0-0.844 0.063-2.047 0.422-2.812 1.375-2.969 3.703-4.047 6.813-4.078z"></path>
</symbol>
</defs>
</svg>
